<svg width="24" height="24" viewBox="0 0 24 24" xmlns="http://www.w3.org/2000/svg">
<path fill-rule="evenodd" clip-rule="evenodd" d="M17.8332 4.50065H16.1665V3.66732C16.1665 3.16732 15.8332 2.83398 15.3332 2.83398C14.8332 2.83398 14.4998 3.16732 14.4998 3.66732V4.50065H9.49984V3.66732C9.49984 3.16732 9.1665 2.83398 8.6665 2.83398C8.1665 2.83398 7.83317 3.16732 7.83317 3.66732V4.50065H6.1665C4.74984 4.50065 3.6665 5.58398 3.6665 7.00065V18.6673C3.6665 20.084 4.74984 21.1673 6.1665 21.1673H17.8332C19.2498 21.1673 20.3332 20.084 20.3332 18.6673V7.00065C20.3332 5.58398 19.2498 4.50065 17.8332 4.50065ZM6.1665 6.16732H7.83317V7.00065C7.83317 7.50065 8.1665 7.83398 8.6665 7.83398C9.1665 7.83398 9.49984 7.50065 9.49984 7.00065V6.16732H14.4998V7.00065C14.4998 7.50065 14.8332 7.83398 15.3332 7.83398C15.8332 7.83398 16.1665 7.50065 16.1665 7.00065V6.16732H17.8332C18.3332 6.16732 18.6665 6.50065 18.6665 7.00065V9.50065H5.33317V7.00065C5.33317 6.50065 5.6665 6.16732 6.1665 6.16732ZM6.1665 19.5007H17.8332C18.3332 19.5007 18.6665 19.1673 18.6665 18.6673V11.1673H5.33317V18.6673C5.33317 19.1673 5.6665 19.5007 6.1665 19.5007Z" />
</svg>
