<svg width="24" height="24" viewBox="0 0 24 24" xmlns="http://www.w3.org/2000/svg">
<path fill-rule="evenodd" clip-rule="evenodd" d="M11.9997 2.83398C6.91634 2.83398 2.83301 6.91732 2.83301 12.0007C2.83301 17.084 6.91634 21.1673 11.9997 21.1673C17.083 21.1673 21.1663 17.084 21.1663 12.0007C21.1663 6.91732 17.083 2.83398 11.9997 2.83398ZM11.9997 19.5007C7.83301 19.5007 4.49967 16.1673 4.49967 12.0007C4.49967 7.83398 7.83301 4.50065 11.9997 4.50065C16.1663 4.50065 19.4997 7.83398 19.4997 12.0007C19.4997 16.1673 16.1663 19.5007 11.9997 19.5007ZM15.083 15.084C15.4163 14.7507 15.4163 14.2507 15.083 13.9173L12.833 11.6673V7.00065C12.833 6.50065 12.4997 6.16732 11.9997 6.16732C11.4997 6.16732 11.1663 6.50065 11.1663 7.00065V12.0007C11.1663 12.2507 11.2497 12.4173 11.4163 12.584L13.9163 15.084C14.083 15.2507 14.2497 15.334 14.4997 15.334C14.7497 15.334 14.9163 15.2507 15.083 15.084Z" />
</svg>
